<?xml version="1.0" encoding="utf-8"?>
<!-- Generator: Adobe Illustrator 24.3.0, SVG Export Plug-In . SVG Version: 6.00 Build 0)  -->
<svg version="1.1" id="Polcom_logo" xmlns="http://www.w3.org/2000/svg" xmlns:xlink="http://www.w3.org/1999/xlink" x="0px"
	 y="0px" viewBox="0 0 206.9 99.2" style="enable-background:new 0 0 206.9 99.2;" xml:space="preserve">
<style type="text/css">
	.st0{fill:#4FBCBD;}
	.st1{fill:#2799D6;}
	.st2{fill:#183E75;}
</style>
<rect x="28.4" y="35.5" class="st0" width="5.7" height="5.7"/>
<rect x="28.4" y="43.5" class="st1" width="5.7" height="5.7"/>
<g>
	<g>
		<g>
			<path class="st2" d="M95.8,67.3c0.3,0.3,0.4,0.7,0.4,1.3v2.3h-0.7v-2.2c0-0.4-0.1-0.7-0.3-0.9c-0.2-0.2-0.4-0.3-0.8-0.3
				c-0.4,0-0.7,0.1-0.9,0.3c-0.2,0.2-0.3,0.6-0.3,1v2.1h-0.7v-2.2c0-0.4-0.1-0.7-0.3-0.9c-0.2-0.2-0.4-0.3-0.8-0.3
				c-0.4,0-0.7,0.1-0.9,0.3c-0.2,0.2-0.3,0.6-0.3,1v2.1h-0.7v-4h0.7v0.6c0.2-0.2,0.3-0.4,0.6-0.5c0.2-0.1,0.5-0.2,0.8-0.2
				c0.3,0,0.6,0.1,0.8,0.2s0.4,0.3,0.6,0.6c0.2-0.2,0.4-0.4,0.6-0.5s0.6-0.2,0.9-0.2C95.1,66.8,95.5,67,95.8,67.3"/>
			<path class="st2" d="M100,70.2c0.2-0.1,0.3-0.3,0.4-0.5v-0.6h-1.1c-0.6,0-0.9,0.2-0.9,0.6c0,0.2,0.1,0.4,0.2,0.5
				c0.2,0.1,0.4,0.2,0.7,0.2C99.5,70.3,99.8,70.3,100,70.2 M100.7,67.2c0.3,0.3,0.4,0.7,0.4,1.2v2.4h-0.7v-0.5
				c-0.1,0.2-0.3,0.3-0.5,0.4c-0.2,0.1-0.5,0.2-0.8,0.2c-0.4,0-0.8-0.1-1.1-0.3c-0.3-0.2-0.4-0.5-0.4-0.8s0.1-0.6,0.4-0.8
				s0.7-0.3,1.2-0.3h1.2v-0.1c0-0.3-0.1-0.6-0.3-0.7s-0.4-0.2-0.8-0.2c-0.2,0-0.5,0-0.7,0.1c-0.2,0.1-0.4,0.2-0.6,0.3l-0.3-0.5
				c0.2-0.2,0.4-0.3,0.7-0.4s0.6-0.1,0.9-0.1C100,66.8,100.4,67,100.7,67.2"/>
		</g>
		<polygon class="st2" points="102.8,65.3 102.8,70.9 103.5,70.9 103.5,69.8 104.3,69 105.8,70.9 106.7,70.9 104.9,68.5 106.6,66.9 
			105.7,66.9 103.5,68.9 103.5,65.3 		"/>
		<g>
			<path class="st2" d="M108.6,67.8c-0.2,0.2-0.4,0.5-0.4,0.8h2.6c0-0.3-0.2-0.6-0.4-0.8c-0.2-0.2-0.5-0.3-0.9-0.3
				C109.1,67.4,108.8,67.5,108.6,67.8 M111.4,69.1h-3.2c0,0.3,0.2,0.6,0.5,0.8c0.3,0.2,0.6,0.3,1,0.3c0.5,0,0.9-0.2,1.2-0.5l0.4,0.5
				c-0.2,0.2-0.4,0.4-0.7,0.5c-0.3,0.1-0.6,0.2-0.9,0.2c-0.4,0-0.8-0.1-1.1-0.3c-0.3-0.2-0.6-0.4-0.8-0.7c-0.2-0.3-0.3-0.7-0.3-1.1
				s0.1-0.7,0.3-1.1c0.2-0.3,0.4-0.6,0.7-0.7c0.3-0.2,0.7-0.3,1-0.3s0.7,0.1,1,0.3c0.3,0.2,0.5,0.4,0.7,0.7c0.2,0.3,0.2,0.7,0.2,1.1
				C111.5,68.9,111.5,69,111.4,69.1"/>
		</g>
	</g>
	<g>
		<rect x="116.5" y="65.3" class="st2" width="0.8" height="5.6"/>
		<polygon class="st2" points="118.7,65.3 118.7,66 120.5,66 120.5,70.9 121.2,70.9 121.2,66 123,66 123,65.3 		"/>
	</g>
	<g>
		<g>
			<path class="st2" d="M129.2,66.5v0.3h1.2v0.6h-1.1v3.4h-0.7v-3.4h-0.7v-0.6h0.7v-0.3c0-0.4,0.1-0.7,0.4-0.9
				c0.2-0.2,0.6-0.3,1-0.3c0.2,0,0.3,0,0.4,0.1s0.3,0.1,0.4,0.2l-0.2,0.6c-0.2-0.1-0.4-0.2-0.6-0.2
				C129.4,65.8,129.2,66.1,129.2,66.5"/>
			<path class="st2" d="M133.7,70.1c0.2-0.1,0.4-0.3,0.5-0.5c0.1-0.2,0.2-0.5,0.2-0.7s-0.1-0.5-0.2-0.7c-0.1-0.2-0.3-0.4-0.5-0.5
				c-0.2-0.1-0.4-0.2-0.7-0.2c-0.3,0-0.5,0.1-0.7,0.2c-0.2,0.1-0.4,0.3-0.5,0.5c-0.1,0.2-0.2,0.5-0.2,0.7s0.1,0.5,0.2,0.7
				c0.1,0.2,0.3,0.4,0.5,0.5s0.4,0.2,0.7,0.2C133.3,70.3,133.5,70.2,133.7,70.1 M131.9,70.6c-0.3-0.2-0.6-0.4-0.7-0.7
				c-0.2-0.3-0.3-0.7-0.3-1.1s0.1-0.7,0.3-1.1c0.2-0.3,0.4-0.6,0.7-0.7c0.3-0.2,0.7-0.3,1.1-0.3c0.4,0,0.8,0.1,1.1,0.3
				c0.3,0.2,0.6,0.4,0.7,0.7c0.2,0.3,0.3,0.7,0.3,1.1s-0.1,0.7-0.3,1.1c-0.2,0.3-0.4,0.6-0.7,0.7c-0.3,0.2-0.7,0.3-1.1,0.3
				S132.2,70.8,131.9,70.6"/>
			<path class="st2" d="M137.5,67c0.2-0.1,0.5-0.2,0.9-0.2v0.7c0,0-0.1,0-0.2,0c-0.4,0-0.7,0.1-0.9,0.3c-0.2,0.2-0.3,0.6-0.3,1v2
				h-0.7v-4h0.7v0.7C137.1,67.3,137.3,67.1,137.5,67"/>
		</g>
		<g>
			<path class="st2" d="M145.7,70.1c0.2-0.1,0.4-0.3,0.5-0.5c0.1-0.2,0.2-0.5,0.2-0.7s-0.1-0.5-0.2-0.7c-0.1-0.2-0.3-0.4-0.5-0.5
				c-0.2-0.1-0.4-0.2-0.7-0.2c-0.2,0-0.5,0.1-0.7,0.2c-0.2,0.1-0.4,0.3-0.5,0.5c-0.1,0.2-0.2,0.5-0.2,0.7s0.1,0.5,0.2,0.7
				c0.1,0.2,0.3,0.4,0.5,0.5c0.2,0.1,0.4,0.2,0.7,0.2C145.3,70.3,145.5,70.2,145.7,70.1 M146.1,67.1c0.3,0.2,0.6,0.4,0.7,0.7
				s0.3,0.7,0.3,1.1c0,0.4-0.1,0.8-0.3,1.1s-0.4,0.6-0.7,0.7s-0.6,0.3-1,0.3c-0.3,0-0.6-0.1-0.8-0.2c-0.2-0.1-0.4-0.3-0.6-0.5v0.6
				H143v-5.6h0.7v2.2c0.2-0.2,0.4-0.4,0.6-0.5s0.5-0.2,0.8-0.2C145.5,66.8,145.8,66.9,146.1,67.1"/>
			<path class="st2" d="M152.1,66.9v4h-0.7v-0.6c-0.1,0.2-0.3,0.4-0.6,0.5s-0.5,0.2-0.8,0.2c-0.5,0-0.9-0.2-1.3-0.4
				s-0.5-0.7-0.5-1.3v-2.3h0.7v2.2c0,0.4,0.1,0.7,0.3,0.9c0.2,0.2,0.4,0.3,0.8,0.3c0.4,0,0.7-0.1,0.9-0.3c0.2-0.2,0.3-0.6,0.3-1
				v-2.1L152.1,66.9L152.1,66.9z"/>
			<path class="st2" d="M154.1,70.8c-0.3-0.1-0.5-0.2-0.7-0.3l0.3-0.6c0.2,0.1,0.4,0.2,0.6,0.3s0.5,0.1,0.8,0.1
				c0.6,0,0.9-0.2,0.9-0.5c0-0.1,0-0.2-0.1-0.3c-0.1-0.1-0.2-0.1-0.3-0.2s-0.3-0.1-0.6-0.1c-0.3-0.1-0.6-0.1-0.8-0.2
				c-0.2-0.1-0.4-0.2-0.5-0.3c-0.1-0.2-0.2-0.4-0.2-0.7c0-0.4,0.1-0.7,0.4-0.9s0.7-0.3,1.2-0.3c0.3,0,0.5,0,0.8,0.1s0.5,0.2,0.7,0.3
				l-0.3,0.6c-0.3-0.2-0.7-0.3-1.1-0.3c-0.3,0-0.5,0.1-0.7,0.2s-0.2,0.2-0.2,0.4c0,0.1,0.1,0.2,0.1,0.3c0.1,0.1,0.2,0.1,0.3,0.2
				c0.1,0,0.3,0.1,0.6,0.1c0.3,0.1,0.6,0.1,0.8,0.2c0.2,0.1,0.4,0.2,0.5,0.3s0.2,0.4,0.2,0.6c0,0.4-0.2,0.7-0.5,0.9
				s-0.7,0.3-1.3,0.3C154.8,70.9,154.4,70.9,154.1,70.8"/>
			<path class="st2" d="M158.2,66.9h0.7v4h-0.7V66.9z M158.2,66c-0.1-0.1-0.1-0.2-0.1-0.3c0-0.1,0.1-0.2,0.1-0.3
				c0.1-0.1,0.2-0.1,0.4-0.1s0.3,0,0.4,0.1c0.1,0.1,0.1,0.2,0.1,0.3c0,0.1-0.1,0.2-0.1,0.3s-0.2,0.1-0.4,0.1
				C158.4,66.1,158.3,66.1,158.2,66"/>
			<path class="st2" d="M164,67.3c0.3,0.3,0.4,0.7,0.4,1.3v2.3h-0.7v-2.2c0-0.4-0.1-0.7-0.3-0.9c-0.2-0.2-0.4-0.3-0.8-0.3
				c-0.4,0-0.7,0.1-0.9,0.3c-0.2,0.2-0.3,0.6-0.3,1v2.1h-0.7v-4h0.7v0.6c0.1-0.2,0.3-0.4,0.6-0.5c0.2-0.1,0.5-0.2,0.9-0.2
				C163.3,66.8,163.7,67,164,67.3"/>
			<path class="st2" d="M166.9,67.8c-0.2,0.2-0.4,0.5-0.4,0.8h2.6c0-0.3-0.2-0.6-0.4-0.8c-0.2-0.2-0.5-0.3-0.9-0.3
				C167.4,67.4,167.1,67.5,166.9,67.8 M169.7,69.1h-3.2c0,0.3,0.2,0.6,0.5,0.8c0.3,0.2,0.6,0.3,1,0.3c0.5,0,0.9-0.2,1.1-0.5l0.4,0.5
				c-0.2,0.2-0.4,0.4-0.7,0.5c-0.3,0.1-0.6,0.2-0.9,0.2c-0.4,0-0.8-0.1-1.1-0.3c-0.3-0.2-0.6-0.4-0.8-0.7c-0.2-0.3-0.3-0.7-0.3-1.1
				s0.1-0.7,0.3-1.1c0.2-0.3,0.4-0.6,0.7-0.7c0.3-0.2,0.6-0.3,1-0.3s0.7,0.1,1,0.3c0.3,0.2,0.5,0.4,0.7,0.7s0.2,0.7,0.2,1.1
				C169.8,68.9,169.7,69,169.7,69.1"/>
			<path class="st2" d="M171.5,70.8c-0.3-0.1-0.5-0.2-0.7-0.3l0.3-0.6c0.2,0.1,0.4,0.2,0.6,0.3s0.5,0.1,0.8,0.1
				c0.6,0,0.9-0.2,0.9-0.5c0-0.1,0-0.2-0.1-0.3c-0.1-0.1-0.2-0.1-0.3-0.2s-0.3-0.1-0.6-0.1c-0.3-0.1-0.6-0.1-0.8-0.2
				c-0.2-0.1-0.4-0.2-0.5-0.3c-0.1-0.2-0.2-0.4-0.2-0.7c0-0.4,0.1-0.7,0.4-0.9s0.7-0.3,1.2-0.3c0.3,0,0.5,0,0.8,0.1s0.5,0.2,0.7,0.3
				l-0.3,0.6c-0.3-0.2-0.7-0.3-1.1-0.3c-0.3,0-0.5,0.1-0.7,0.2s-0.2,0.2-0.2,0.4c0,0.1,0.1,0.2,0.1,0.3c0.1,0.1,0.2,0.1,0.3,0.2
				c0.1,0,0.3,0.1,0.6,0.1c0.3,0.1,0.6,0.1,0.8,0.2c0.2,0.1,0.4,0.2,0.5,0.3s0.2,0.4,0.2,0.6c0,0.4-0.2,0.7-0.5,0.9
				s-0.7,0.3-1.3,0.3C172.1,70.9,171.8,70.9,171.5,70.8"/>
			<path class="st2" d="M175.9,70.8c-0.3-0.1-0.5-0.2-0.7-0.3l0.3-0.6c0.2,0.1,0.4,0.2,0.6,0.3s0.5,0.1,0.8,0.1
				c0.6,0,0.9-0.2,0.9-0.5c0-0.1,0-0.2-0.1-0.3c-0.1-0.1-0.2-0.1-0.3-0.2s-0.3-0.1-0.6-0.1c-0.3-0.1-0.6-0.1-0.8-0.2
				c-0.2-0.1-0.4-0.2-0.5-0.3c-0.1-0.2-0.2-0.4-0.2-0.7c0-0.4,0.1-0.7,0.4-0.9s0.7-0.3,1.2-0.3c0.3,0,0.5,0,0.8,0.1s0.5,0.2,0.7,0.3
				l-0.3,0.6c-0.3-0.2-0.7-0.3-1.1-0.3c-0.3,0-0.5,0.1-0.7,0.2S176,67.8,176,68c0,0.1,0.1,0.2,0.1,0.3c0.1,0.1,0.2,0.1,0.3,0.2
				c0.1,0,0.3,0.1,0.6,0.1c0.3,0.1,0.6,0.1,0.8,0.2c0.2,0.1,0.4,0.2,0.5,0.3s0.2,0.4,0.2,0.6c0,0.4-0.2,0.7-0.5,0.9
				c-0.3,0.2-0.7,0.3-1.3,0.3C176.5,70.9,176.2,70.9,175.9,70.8"/>
		</g>
	</g>
	<g>
		<polygon class="st2" points="95.1,27.1 89.3,28.3 89.3,56.7 95.1,56.7 		"/>
		<path class="st2" d="M108.5,52.3c-0.7,0-1.3,0-1.8-0.1s-0.9-0.3-1.2-0.6c-0.3-0.3-0.5-0.7-0.6-1.2s-0.2-1.2-0.2-2.1v-2.5
			c0-0.9,0.1-1.6,0.2-2.1s0.3-0.9,0.6-1.2c0.3-0.3,0.7-0.5,1.1-0.6c0.5-0.1,1.1-0.1,1.8-0.1h1.3c0.4,0,0.7,0,1.1,0c0.3,0,5.7,0,6,0
			s0.7,0,1.1,0l0.9-4.5c-1.4,0-7.4-0.1-8.3-0.1h-2.2c-1.7,0-3.1,0.2-4.3,0.5c-1.2,0.3-2.1,0.8-2.9,1.5s-1.3,1.6-1.6,2.7
			c-0.3,1.1-0.5,2.4-0.5,3.9v2.5c0,1.6,0.2,2.9,0.5,4c0.3,1.1,0.8,2,1.6,2.6c0.7,0.7,1.7,1.2,2.9,1.5c1.2,0.3,2.7,0.5,4.4,0.5
			c0.5,0,1.2,0,2,0c0.8,0,6.7,0,7.7,0l0.9-4.5c-1,0-6.9,0.1-7.7,0.1H108.5z"/>
		<path class="st2" d="M131.6,37.3L131.6,37.3C131.6,37.3,131.6,37.3,131.6,37.3L131.6,37.3z"/>
		<path class="st2" d="M139.9,48.1c0,1-0.1,1.7-0.1,2.3c-0.1,0.6-0.3,1-0.5,1.3c-0.3,0.3-0.6,0.5-1.1,0.6c-0.4,0.1-1,0.2-1.7,0.2
			c0,0,0,0,0,0h-4.8c-0.7,0-1.2,0-1.7-0.2c-0.4-0.1-0.8-0.3-1.1-0.6c-0.3-0.3-0.4-0.7-0.6-1.3c-0.1-0.6-0.2-1.3-0.2-2.3v-2.3
			c0-1,0.1-1.7,0.2-2.2c0.1-0.6,0.3-1,0.6-1.3s0.6-0.5,1.1-0.6c0.4-0.1,1-0.2,1.7-0.2h4.8c0,0,0,0,0,0c0.7,0,1.3,0,1.7,0.2
			c0.4,0.1,0.8,0.3,1.1,0.6c0.3,0.3,0.4,0.7,0.5,1.3c0.1,0.6,0.1,1.3,0.1,2.2V48.1z M145.1,41.7c-0.3-1.2-0.9-2.1-1.6-2.8
			c-0.7-0.7-1.7-1.2-2.9-1.5c-1.2-0.3-2.6-0.4-4.3-0.4c0,0,0,0,0,0h-4.8c-1.7,0-3.1,0.1-4.3,0.4c-1.2,0.3-2.1,0.8-2.9,1.5
			c-0.8,0.7-1.3,1.6-1.6,2.8c-0.3,1.2-0.5,2.6-0.5,4.3v2c0,1.7,0.2,3.1,0.5,4.3c0.3,1.2,0.9,2.1,1.6,2.8c0.8,0.7,1.7,1.2,2.9,1.5
			c1.2,0.3,2.6,0.5,4.3,0.5l0,0h4.8l0,0c0,0,0,0,0,0c1.7,0,3.1-0.1,4.3-0.5c1.2-0.3,2.1-0.8,2.9-1.5c0.7-0.7,1.3-1.6,1.6-2.8
			c0.3-1.2,0.5-2.6,0.5-4.3v-2C145.6,44.3,145.5,42.8,145.1,41.7"/>
		<path class="st2" d="M71.8,37.3L71.8,37.3C71.8,37.3,71.8,37.3,71.8,37.3L71.8,37.3z"/>
		<path class="st2" d="M79.6,48.1c0,1-0.1,1.7-0.1,2.3c-0.1,0.6-0.3,1-0.5,1.3c-0.3,0.3-0.6,0.5-1.1,0.6c-0.4,0.1-1,0.2-1.7,0.2
			c0,0,0,0,0,0h-4.8c-0.7,0-1.2,0-1.7-0.2c-0.4-0.1-0.8-0.3-1.1-0.6c-0.3-0.3-0.4-0.7-0.6-1.3c-0.1-0.6-0.2-1.3-0.2-2.3v-2.3
			c0-1,0.1-1.7,0.2-2.2c0.1-0.6,0.3-1,0.6-1.3c0.3-0.3,0.6-0.5,1.1-0.6c0.4-0.1,1-0.2,1.7-0.2h4.8c0,0,0,0,0,0c0.7,0,1.3,0,1.7,0.2
			c0.4,0.1,0.8,0.3,1.1,0.6c0.3,0.3,0.4,0.7,0.5,1.3c0.1,0.6,0.1,1.3,0.1,2.2V48.1z M84.9,41.7c-0.3-1.2-0.9-2.1-1.6-2.8
			c-0.7-0.7-1.7-1.2-2.9-1.5c-1.2-0.3-2.6-0.4-4.3-0.4c0,0,0,0,0,0h-4.8c-1.7,0-3.1,0.1-4.3,0.4c-1.2,0.3-2.1,0.8-2.9,1.5
			c-0.8,0.7-1.3,1.6-1.6,2.8c-0.3,1.2-0.5,2.6-0.5,4.3v2c0,1.7,0.2,3.1,0.5,4.3c0.3,1.2,0.9,2.1,1.6,2.8c0.8,0.7,1.7,1.2,2.9,1.5
			c1.2,0.3,2.6,0.5,4.3,0.5l0,0h4.8l0,0c0,0,0,0,0,0c1.7,0,3.1-0.1,4.3-0.5c1.2-0.3,2.1-0.8,2.9-1.5c0.7-0.7,1.3-1.6,1.6-2.8
			c0.3-1.2,0.5-2.6,0.5-4.3v-2C85.4,44.3,85.2,42.8,84.9,41.7"/>
		<path class="st2" d="M172.1,37.3h-22.7v19.4h5.7V41.9h6v14.8h5.7V41.9h3.3c1.5,0,2.7,1.2,2.7,2.7v12.1h5.7V43.8
			C178.6,40.2,175.7,37.3,172.1,37.3z"/>
		<path class="st2" d="M56.9,30.2c-1.5-1.2-4-1.9-7.5-1.9h-13v4.8h5.7h7c0.8,0,1.5,0,2,0.1c0.5,0.1,1,0.3,1.3,0.5
			c0.3,0.3,0.6,0.6,0.7,1.1c0.1,0.4,0.2,1,0.2,1.7V40c0,0.7-0.1,1.3-0.2,1.7c-0.1,0.5-0.4,0.8-0.7,1.1C52,43,51.6,43.2,51,43.3
			c-0.5,0.1-1.2,0.1-2,0.1h-7h-5.7v13.2h5.7v-8.4h7.2c3.5,0,6-0.7,7.5-1.9c1.5-1.3,2.3-3.2,2.3-5.8v-4.4
			C59.2,33.4,58.4,31.5,56.9,30.2"/>
		<rect x="36.3" y="35.5" class="st2" width="5.7" height="5.7"/>
	</g>
</g>
</svg>
